<svg xmlns="http://www.w3.org/2000/svg" viewBox="0 0 16 16" shape-rendering="crispEdges" width="96" height="96">
  <rect width="16" height="16" fill="#0d1820"/>
  <!-- sombrero puntiagudo -->
  <rect x="7" y="0" width="2" height="1" fill="#5b2c8f"/>
  <rect x="6" y="1" width="4" height="1" fill="#5b2c8f"/>
  <rect x="5" y="2" width="6" height="1" fill="#5b2c8f"/>
  <rect x="4" y="3" width="8" height="1" fill="#3a1d5c"/>
  <!-- cara -->
  <rect x="5" y="4" width="6" height="2" fill="#e4b48a"/>
  <rect x="6" y="4" width="1" height="1" fill="#1a0c08"/>
  <rect x="9" y="4" width="1" height="1" fill="#1a0c08"/>
  <!-- barba -->
  <rect x="5" y="6" width="6" height="1" fill="#dddddd"/>
  <!-- túnica -->
  <rect x="4" y="7" width="8" height="6" fill="#5b2c8f"/>
  <rect x="7" y="8" width="2" height="2" fill="#ffd84a"/>
  <!-- bastón -->
  <rect x="13" y="4" width="1" height="9" fill="#a45f2c"/>
  <rect x="12" y="3" width="3" height="2" fill="#85d4ff"/>
  <rect x="13" y="2" width="1" height="1" fill="#85d4ff"/>
  <!-- piernas -->
  <rect x="5" y="13" width="2" height="2" fill="#3a1d5c"/>
  <rect x="9" y="13" width="2" height="2" fill="#3a1d5c"/>
</svg>
