<svg xmlns="http://www.w3.org/2000/svg" viewBox="0 0 16 16" shape-rendering="crispEdges" width="96" height="96">
  <rect width="16" height="16" fill="#0d1820"/>
  <!-- pelo / banda verde -->
  <rect x="5" y="2" width="6" height="1" fill="#3d7a3a"/>
  <rect x="5" y="3" width="6" height="1" fill="#6a3a18"/>
  <!-- cara -->
  <rect x="5" y="4" width="6" height="2" fill="#e4b48a"/>
  <rect x="6" y="4" width="1" height="1" fill="#1a0c08"/>
  <rect x="9" y="4" width="1" height="1" fill="#1a0c08"/>
  <!-- túnica verde con peto cuero -->
  <rect x="4" y="6" width="8" height="5" fill="#3d7a3a"/>
  <rect x="6" y="7" width="4" height="3" fill="#6a3a18"/>
  <!-- arco curvo -->
  <rect x="2" y="4" width="1" height="1" fill="#a45f2c"/>
  <rect x="1" y="5" width="1" height="6" fill="#a45f2c"/>
  <rect x="2" y="11" width="1" height="1" fill="#a45f2c"/>
  <rect x="3" y="5" width="1" height="6" fill="#dddddd"/>
  <!-- carcaj -->
  <rect x="13" y="6" width="2" height="5" fill="#6a3a18"/>
  <rect x="13" y="5" width="1" height="2" fill="#dddddd"/>
  <!-- piernas -->
  <rect x="5" y="11" width="2" height="4" fill="#22332f"/>
  <rect x="9" y="11" width="2" height="4" fill="#22332f"/>
</svg>
